<?xml version="1.0" encoding="UTF-8"?>
<svg id="Capa_1" xmlns="http://www.w3.org/2000/svg" version="1.1" xmlns:xlink="http://www.w3.org/1999/xlink" viewBox="0 0 31.88 32">
  <!-- Generator: Adobe Illustrator 30.1.0, SVG Export Plug-In . SVG Version: 2.1.1 Build 136)  -->
  <defs>
    <style>
      .st0 {
        fill: none;
      }

      .st1 {
        clip-path: url(#clippath-1);
      }

      .st2 {
        fill: #3b54a5;
      }

      .st3 {
        clip-path: url(#clippath);
      }
    </style>
    <clipPath id="clippath">
      <rect class="st0" x="2.39" y="2.76" width="27.09" height="26.48"/>
    </clipPath>
    <clipPath id="clippath-1">
      <rect class="st0" x="2.39" y="2.76" width="27.09" height="26.48"/>
    </clipPath>
  </defs>
  <g id="Molequiul">
    <g class="st3">
      <g class="st1">
        <path class="st2" d="M26.28,7.62c-1.13.36-1.81,1.46-1.69,2.6-.03.05-.05.1-.09.14l-4.39.66c-.21-.05-.4-.12-.58-.23-1.42-2.33-4.29-3.48-7-2.61-.63.2-1.2.5-1.71.87-.13,0-.26,0-.39-.02l-3.39-2.4c-.02-.07-.04-.14-.04-.22.32-.57.41-1.27.19-1.95-.41-1.29-1.8-2-3.09-1.59-1.29.42-2,1.8-1.59,3.09.42,1.29,1.8,2,3.09,1.59.26-.08.49-.2.69-.35.05,0,.11,0,.16,0l2.55,3.25c.05.17.08.35.09.53-.78,1.41-1,3.12-.47,4.78.55,1.72,1.81,3.02,3.34,3.68.08.11.14.24.19.37l-.18,4.37c-.05.05-.1.1-.16.13-.25,0-.51.04-.76.12-1.29.42-2,1.8-1.59,3.09.42,1.29,1.8,2,3.09,1.59,1.29-.42,2-1.8,1.59-3.09-.22-.67-.7-1.19-1.3-1.47-.03-.05-.06-.1-.08-.16l1.33-4.07c.14-.15.3-.28.48-.38.54-.02,1.09-.11,1.64-.29,0,0,.02,0,.03,0,.14-.04.28-.09.41-.14,0,0,0,0,0,0,2.48-1.01,3.96-3.52,3.72-6.12.07-.15.15-.29.26-.42l4.08-1.82c.08.02.15.05.22.09.58.95,1.75,1.42,2.85,1.06,1.29-.42,2-1.8,1.59-3.09-.41-1.29-1.8-2-3.09-1.59"/>
      </g>
    </g>
  </g>
</svg>